<?xml version="1.0" encoding="utf-8"?>
<svg viewBox="0 0 512 512" xmlns="http://www.w3.org/2000/svg">
  <path d="M 183.542 26.426 C 211.961 26.426 235.046 49.511 235.046 77.93 L 235.046 445.815 C 235.046 474.234 211.961 497.319 183.542 497.319 C 156.962 497.319 135.073 477.177 132.314 451.242 C 127.532 452.529 122.473 453.173 117.323 453.173 C 84.857 453.173 58.461 426.777 58.461 394.311 C 58.461 387.505 59.657 380.883 61.772 374.813 C 33.997 364.329 14.315 337.473 14.315 306.019 C 14.315 276.68 31.513 251.296 56.438 239.524 C 48.436 229.499 43.746 216.807 43.746 203.011 C 43.746 174.776 63.611 151.231 90.099 145.437 C 88.628 140.378 87.892 134.952 87.892 129.434 C 87.892 101.934 106.838 78.758 132.314 72.32 C 135.073 46.568 156.962 26.426 183.542 26.426 Z" style=""/>
  <path d="M 351.816 274.992 C 368.695 274.992 386.643 276.703 405.232 280.121 L 405.232 312.171 C 391.985 308.753 374.037 307.044 351.816 307.044 C 311.218 307.044 279.382 314.094 255.666 328.197 L 255.666 292.087 C 280.664 280.762 312.714 274.992 351.816 274.992 M 255.666 235.038 C 283.228 223.713 315.279 218.157 351.816 218.157 C 368.695 218.157 386.643 219.653 405.232 223.072 L 405.232 255.122 C 391.985 251.704 374.037 249.994 351.816 249.994 C 311.218 249.994 279.382 257.259 255.666 271.146 M 351.816 193.158 C 311.218 193.158 279.382 199.995 255.666 214.524 L 255.666 179.057 C 281.947 167.091 313.997 161.108 351.816 161.108 C 368.695 161.108 386.643 162.817 405.232 166.022 L 405.232 199.141 C 389.42 195.082 371.258 193.158 351.816 193.158 M 426.599 364.092 L 426.599 118.376 C 404.378 111.323 379.378 107.691 351.816 107.691 C 308.014 107.691 268.912 118.376 234.299 139.741 L 234.299 385.459 C 268.912 364.092 308.014 353.409 351.816 353.409 C 377.241 353.409 402.241 356.827 426.599 364.092 M 351.816 64.958 C 402.027 64.958 441.342 75.641 469.332 97.008 L 469.332 408.108 C 469.332 410.671 468.265 413.236 465.913 415.586 C 463.563 417.509 461 419.219 458.649 419.219 C 456.299 419.219 454.589 418.791 453.308 418.149 C 425.959 403.407 391.985 396.142 351.816 396.142 C 308.014 396.142 268.912 406.825 234.299 428.193 C 234.341 402.424 233.786 117.541 234.299 97.008 C 262.93 75.641 302.031 64.958 351.816 64.958 Z" style=""/>
</svg>